<svg xmlns="http://www.w3.org/2000/svg" width="1024" height="1024" viewBox="0 0 1024 1024" version="1.1"><path d="M 0 512.001 L 0 1024.002 512.250 1023.751 L 1024.500 1023.500 1024.751 511.750 L 1025.002 0 512.501 0 L 0 0 0 512.001 M 0.496 512.500 C 0.496 794.100, 0.610 909.151, 0.750 768.168 C 0.890 627.186, 0.890 396.786, 0.750 256.168 C 0.610 115.551, 0.496 230.900, 0.496 512.500 M 208.203 104.127 C 180.259 107.080, 156.527 117.537, 137.457 135.302 C 117.914 153.507, 106.911 175.037, 102.310 204.073 C 100.593 214.914, 100.500 230.774, 100.500 513.500 C 100.500 798.317, 100.581 811.984, 102.341 822.440 C 106.789 848.859, 117.158 869.423, 134.910 887.027 C 152.126 904.100, 171.263 913.826, 197.364 918.770 C 205.900 920.386, 226.514 920.500, 511 920.500 C 804.497 920.500, 815.861 920.432, 825.500 918.625 C 845.737 914.831, 862.232 907.922, 876.528 897.250 C 901.013 878.972, 916.426 853.111, 921.674 821.500 C 923.413 811.022, 923.500 796.380, 923.500 513 C 923.500 275.016, 923.241 213.700, 922.207 206.500 C 915.338 158.690, 887.084 123.550, 844.242 109.533 C 824.660 103.125, 850.639 103.612, 518.500 103.422 C 351.017 103.327, 212.804 103.640, 208.203 104.127 M 488.362 202.085 C 483.336 204.246, 474.674 207.207, 469.112 208.665 C 463.550 210.122, 459 211.633, 459 212.022 C 459 212.411, 464.681 221.227, 471.625 231.614 C 478.568 242.001, 485.521 253.254, 487.076 256.621 C 489.802 262.524, 492.889 275.444, 491.827 276.507 C 491.542 276.791, 474.063 276.906, 452.984 276.762 L 414.659 276.500 422.079 270.598 C 434.327 260.858, 437.052 257.966, 435.941 255.890 C 432.215 248.928, 411.023 224.321, 395.596 209.043 L 386.047 199.586 379.773 203.923 C 376.323 206.308, 368.887 211.387, 363.250 215.208 C 357.613 219.029, 353 222.383, 353 222.661 C 353 222.940, 357.236 227.517, 362.413 232.834 C 378.310 249.158, 390.761 265.102, 394.756 274.250 L 395.957 277 358.979 277 L 322 277 322 325.406 L 322 373.812 342.250 373.323 C 353.387 373.054, 362.931 372.728, 363.457 372.598 C 364.037 372.455, 364.432 361.537, 364.457 344.931 C 364.481 329.844, 364.842 316.973, 365.260 316.329 C 366.134 314.983, 580.863 314.402, 629.250 315.615 L 657 316.310 657 344.655 L 657 373 679.625 373 L 702.250 373 701.625 369.875 C 701.281 368.156, 701 346.556, 701 321.875 L 701 277 667.963 277 L 634.925 277 638.911 271.132 C 644.556 262.819, 656.565 242.806, 660.047 235.907 C 662.699 230.654, 669 215.596, 669 214.513 C 669 214.273, 667.087 213.583, 664.750 212.979 C 656.912 210.954, 641.948 205.952, 636.435 203.514 L 630.973 201.098 626.875 209.249 C 621.630 219.680, 602.780 250.734, 588.947 271.732 L 585.500 276.964 547.583 276.982 C 526.729 276.992, 509.854 276.824, 510.083 276.608 C 510.313 276.393, 516.913 273.003, 524.750 269.075 C 532.587 265.147, 539 261.687, 539 261.386 C 539 259.771, 526.899 237.542, 521.753 229.705 C 516.817 222.188, 502.898 203.928, 498.596 199.328 C 497.767 198.440, 495.277 199.111, 488.362 202.085 M 596.951 347.247 C 593.584 349.131, 591.045 349.163, 492.750 348.574 L 392 347.970 391.989 363.735 C 391.983 372.406, 391.717 381.075, 391.398 383 L 390.819 386.500 472.159 386.272 L 553.500 386.043 550.500 388.575 C 539.176 398.132, 515.986 411.403, 501.697 416.503 L 492.500 419.785 492.223 434.393 C 492.071 442.427, 491.846 449.101, 491.723 449.225 C 491.600 449.349, 452.575 449.686, 405 449.975 L 318.500 450.500 318.229 469.500 L 317.958 488.500 404.979 488.213 L 492 487.927 492.127 506.213 C 492.303 531.707, 491.914 548.672, 491.079 551.823 C 489.658 557.194, 487.668 557.480, 450.046 557.721 C 431.096 557.843, 414.993 558.172, 414.261 558.453 C 413.176 558.870, 413.212 559.510, 414.458 561.918 C 415.298 563.543, 418.263 572.426, 421.048 581.658 C 423.832 590.890, 426.245 598.578, 426.410 598.743 C 426.575 598.908, 441.738 598.562, 460.105 597.974 C 487.188 597.107, 495.012 596.535, 501.500 594.951 C 512.385 592.292, 521.049 587.843, 527.364 581.668 C 535.991 573.234, 536 573.176, 536 527.482 L 536 488.321 619.217 488.110 C 664.986 487.995, 702.533 487.801, 702.654 487.679 C 702.776 487.557, 703.016 479.142, 703.188 468.979 L 703.500 450.500 620.200 450.244 L 536.901 449.988 537.200 444.315 L 537.500 438.641 545.874 433.834 C 565.396 422.627, 579.296 412.098, 615.403 381.174 C 634.388 364.913, 633.624 366.828, 623.500 360.881 C 620.750 359.265, 614.428 355.102, 609.451 351.629 L 600.402 345.315 596.951 347.247 M 495.665 641.927 L 488.831 642.500 488.665 687.782 L 488.500 733.064 498.500 732.782 L 508.500 732.500 509 704.608 L 509.500 676.716 519.380 691.608 C 524.813 699.799, 532.062 710.325, 535.489 715 C 538.915 719.675, 542.949 725.638, 544.454 728.250 L 547.190 733 556.966 733 L 566.742 733 567.465 725.750 C 567.862 721.763, 568.161 701.400, 568.129 680.500 L 568.071 642.500 557.991 642.215 L 547.911 641.929 548.205 669.883 C 548.367 685.257, 548.355 697.691, 548.178 697.513 C 547.473 696.805, 523.410 661.834, 516.689 651.750 C 508.622 639.647, 510.786 640.658, 495.665 641.927 M 295.286 687.501 L 295.072 733 304.882 733 L 314.693 733 315.289 719.062 C 315.938 703.871, 316.618 701.624, 322.180 696.282 L 325.530 693.063 328.427 697.782 C 330.020 700.377, 335.863 709.361, 341.412 717.748 L 351.500 732.995 363.809 732.998 C 373.393 732.999, 375.951 732.723, 375.362 731.750 C 374.947 731.063, 372.168 727.191, 369.187 723.146 C 359.774 710.374, 349.836 695.780, 344.930 687.525 L 340.190 679.550 344.302 674.525 C 346.563 671.761, 354.283 663.425, 361.457 656 L 374.500 642.500 361.846 642.221 L 349.192 641.942 333.379 658.028 C 320.405 671.227, 317.438 673.790, 316.853 672.307 C 316.461 671.313, 316.109 664.087, 316.070 656.250 L 316 642 305.750 642.001 L 295.500 642.002 295.286 687.501 M 417.507 642.988 C 416.789 644.151, 407.101 671.292, 398.051 697.500 C 393.182 711.599, 387.999 725.547, 385.325 731.750 C 384.912 732.707, 387.366 733, 395.790 733 L 406.794 733 409.554 724 L 412.315 715 429.122 715 C 448.393 715, 446.663 714.086, 449.471 725.750 L 451.215 733 462.715 733 C 473.267 733, 474.156 732.856, 473.513 731.250 C 470.966 724.885, 458.353 689.413, 451.023 668 L 442.295 642.500 430.225 642.220 C 422.585 642.043, 417.917 642.325, 417.507 642.988 M 624 676.444 C 624 710.870, 623.999 710.890, 621.717 713.543 C 620.064 715.464, 618.170 716.339, 614.856 716.713 C 608.266 717.456, 605.626 715.391, 602.974 707.421 C 601.799 703.890, 600.536 701.015, 600.168 701.033 C 599.801 701.051, 597.025 701.936, 594 703 C 590.975 704.064, 587.289 704.949, 585.809 704.967 C 584.329 704.985, 582.869 705.403, 582.565 705.895 C 582.260 706.388, 583.812 710.388, 586.013 714.785 C 592.686 728.119, 601.838 734.513, 614.025 734.356 C 623.944 734.229, 630.982 731.794, 635.985 726.758 C 643.813 718.877, 643.772 719.117, 644.270 678.250 L 644.712 642 634.356 642 L 624 642 624 676.444 M 664.213 687.500 L 664.240 733 666.969 733 C 668.470 733, 673.088 732.713, 677.232 732.363 L 684.766 731.726 684.720 686.863 L 684.675 642 674.430 642 L 664.185 642 664.213 687.500 M 424.585 676.916 C 421.882 685.487, 419.058 693.737, 418.309 695.250 L 416.949 698 428.974 698 C 435.588 698, 440.990 697.663, 440.979 697.250 C 440.967 696.837, 438.380 688.587, 435.229 678.916 L 429.500 661.333 424.585 676.916 M 704 691.500 L 704 700 723 700 L 742 700 742 691.500 L 742 683 723 683 L 704 683 704 691.500 M 242.846 757.707 L 240.191 758.114 240.580 803.307 L 240.968 848.500 250.984 848.785 L 261 849.070 261.049 818.785 L 261.097 788.500 264.091 796.500 C 270.029 812.368, 276.354 830.675, 278.948 839.500 L 281.593 848.500 288.644 848.791 L 295.696 849.081 299.957 837.291 C 302.301 830.806, 307.043 817.490, 310.494 807.699 C 313.944 797.909, 317.045 789.622, 317.384 789.283 C 317.723 788.944, 318 802.257, 318 818.868 L 318 849.070 328.174 848.785 L 338.347 848.500 338.549 803.250 L 338.751 758 323.480 758 L 308.208 758 304.104 769.565 C 301.847 775.925, 299.984 781.438, 299.965 781.815 C 299.946 782.192, 297.535 789.185, 294.607 797.355 L 289.283 812.211 285.065 800.355 C 282.745 793.835, 279.031 782.875, 276.811 776 C 274.591 769.125, 272.348 762.327, 271.826 760.893 C 270.938 758.456, 270.346 758.246, 262.688 757.649 C 254.188 756.988, 247.404 757.007, 242.846 757.707 M 479.500 757.923 C 473.574 759.551, 470.944 761.010, 466.423 765.177 C 459.774 771.307, 457.628 776.007, 457.588 784.533 C 457.519 799.281, 465.669 806.275, 489 811.492 C 502.928 814.607, 504.388 815.251, 506.260 819.117 C 507.682 822.053, 507.695 822.796, 506.384 825.955 C 504.173 831.281, 501.945 832.982, 496.309 833.650 C 485.673 834.910, 476.750 830.315, 472.519 821.400 C 470.634 817.426, 470.584 817.416, 464.877 819.921 C 462.470 820.978, 458.813 822.153, 456.750 822.532 C 454.688 822.912, 453 823.409, 453 823.636 C 453 823.864, 454.537 827.102, 456.416 830.832 C 460.572 839.087, 465.853 844.053, 473.525 846.924 C 490.282 853.193, 509.314 850.817, 519.370 841.201 C 530.096 830.942, 530.736 815.798, 520.914 804.639 C 515.811 798.842, 510.836 796.524, 497.988 793.956 C 492.220 792.802, 485.700 790.872, 483.500 789.666 C 479.897 787.692, 479.469 787.041, 479.187 783.119 C 478.941 779.709, 479.359 778.247, 481.111 776.382 C 483.062 774.305, 484.254 774.002, 490.424 774.014 C 500.549 774.033, 501.737 774.547, 504.566 780.129 C 505.923 782.808, 507.571 785, 508.227 785 C 509.157 785, 524.288 780.124, 525.844 779.323 C 526.033 779.226, 524.683 776.330, 522.844 772.888 C 519.259 766.179, 513.192 761.090, 506.182 758.912 C 501.587 757.485, 483.530 756.816, 479.500 757.923 M 660.137 757.764 L 628.774 758.029 629.373 760.264 C 629.703 761.494, 629.979 781.962, 629.986 805.750 L 630 849 662.943 849 L 695.886 849 695.473 840.807 C 695.166 834.707, 694.658 832.388, 693.488 831.733 C 692.623 831.249, 682.728 830.999, 671.498 831.177 L 651.079 831.500 650.463 826.500 C 650.124 823.750, 649.993 819.475, 650.173 817 L 650.500 812.500 655.500 811.816 C 658.250 811.439, 666.800 811.146, 674.500 811.163 C 682.200 811.180, 688.612 810.926, 688.750 810.597 C 688.888 810.269, 689 806.625, 689 802.500 L 689 795 669.500 795 L 650 795 650.015 786.750 C 650.024 782.212, 650.419 777.887, 650.894 777.138 C 651.564 776.080, 656.526 775.682, 673.098 775.359 L 694.439 774.943 694.284 766.797 C 694.176 761.150, 693.725 758.475, 692.814 758.076 C 692.091 757.759, 677.387 757.619, 660.137 757.764 M 386 758.306 C 386 758.507, 382.830 767.633, 378.956 778.586 C 375.082 789.539, 368.836 807.275, 365.077 818 C 361.317 828.725, 357.287 839.879, 356.121 842.787 C 354.954 845.695, 354 848.282, 354 848.537 C 354 848.792, 358.906 849, 364.903 849 L 375.805 849 377.838 842.250 C 378.956 838.538, 380.174 834.260, 380.545 832.745 L 381.219 829.990 398.102 830.245 L 414.985 830.500 416.390 835 C 417.162 837.475, 418.349 841.638, 419.027 844.250 L 420.260 849 431.576 849 L 442.892 849 441.060 843.750 C 440.052 840.862, 435.740 828.825, 431.478 817 C 427.216 805.175, 420.939 787.175, 417.529 777 L 411.330 758.500 398.665 758.220 C 391.699 758.066, 386 758.105, 386 758.306 M 539.015 765.250 C 539.024 769.237, 539.447 773.159, 539.957 773.965 C 540.708 775.151, 543.263 775.371, 553.442 775.125 L 566 774.822 566.136 783.661 C 566.210 788.522, 566.548 805.100, 566.886 820.500 L 567.500 848.500 576.910 848.790 C 582.086 848.949, 586.718 848.682, 587.203 848.197 C 587.712 847.688, 587.613 833.428, 586.968 814.459 C 586.354 796.388, 586.138 780.078, 586.488 778.215 L 587.123 774.828 600.105 775.122 L 613.087 775.417 613.293 766.709 L 613.500 758 576.250 758 L 539 758 539.015 765.250 M 712 803.440 L 712 849 721.970 849 L 731.940 849 731.753 834.250 C 731.650 826.138, 731.916 818.938, 732.342 818.250 C 732.841 817.447, 735.570 817, 739.975 817 L 746.833 817 755.338 833.250 L 763.844 849.500 774.516 849.323 C 780.386 849.225, 785.407 848.926, 785.676 848.658 C 785.944 848.389, 782.831 842.169, 778.759 834.835 C 767.569 814.682, 767.862 816.583, 774.831 809.417 C 781.723 802.330, 783.461 797.316, 783.468 784.500 C 783.473 775.246, 782.210 772.216, 775.737 765.944 C 767.957 758.405, 768.582 758.536, 738.750 758.190 L 712 757.881 712 803.440 M 732.875 775.147 C 732.806 775.341, 732.469 781.013, 732.125 787.752 L 731.500 800.004 740.500 799.978 C 750.903 799.948, 756.310 798.906, 759.878 796.241 C 764.740 792.611, 765.076 783.525, 760.542 778.254 C 758.227 775.562, 757.889 775.492, 745.587 775.147 C 738.664 774.953, 732.944 774.953, 732.875 775.147 M 393.524 793.219 C 390.844 801.624, 388.043 809.737, 387.300 811.250 L 385.949 814 397.974 814 C 404.588 814, 409.990 813.888, 409.979 813.750 C 409.967 813.612, 407.356 805.499, 404.177 795.719 L 398.396 777.938 393.524 793.219" stroke="none" fill="#fbfbfb" fill-rule="evenodd"/><path d="M 208.203 104.127 C 180.259 107.080, 156.527 117.537, 137.457 135.302 C 117.914 153.507, 106.911 175.037, 102.310 204.073 C 100.593 214.914, 100.500 230.774, 100.500 513.500 C 100.500 798.317, 100.581 811.984, 102.341 822.440 C 106.789 848.859, 117.158 869.423, 134.910 887.027 C 152.126 904.100, 171.263 913.826, 197.364 918.770 C 205.900 920.386, 226.514 920.500, 511 920.500 C 804.497 920.500, 815.861 920.432, 825.500 918.625 C 845.737 914.831, 862.232 907.922, 876.528 897.250 C 901.013 878.972, 916.426 853.111, 921.674 821.500 C 923.413 811.022, 923.500 796.380, 923.500 513 C 923.500 275.016, 923.241 213.700, 922.207 206.500 C 915.338 158.690, 887.084 123.550, 844.242 109.533 C 824.660 103.125, 850.639 103.612, 518.500 103.422 C 351.017 103.327, 212.804 103.640, 208.203 104.127 M 488.362 202.085 C 483.336 204.246, 474.674 207.207, 469.112 208.665 C 463.550 210.122, 459 211.633, 459 212.022 C 459 212.411, 464.681 221.227, 471.625 231.614 C 478.568 242.001, 485.521 253.254, 487.076 256.621 C 489.802 262.524, 492.889 275.444, 491.827 276.507 C 491.542 276.791, 474.063 276.906, 452.984 276.762 L 414.659 276.500 422.079 270.598 C 434.327 260.858, 437.052 257.966, 435.941 255.890 C 432.215 248.928, 411.023 224.321, 395.596 209.043 L 386.047 199.586 379.773 203.923 C 376.323 206.308, 368.887 211.387, 363.250 215.208 C 357.613 219.029, 353 222.383, 353 222.661 C 353 222.940, 357.236 227.517, 362.413 232.834 C 378.310 249.158, 390.761 265.102, 394.756 274.250 L 395.957 277 358.979 277 L 322 277 322 325.406 L 322 373.812 342.250 373.323 C 353.387 373.054, 362.931 372.728, 363.457 372.598 C 364.037 372.455, 364.432 361.537, 364.457 344.931 C 364.481 329.844, 364.842 316.973, 365.260 316.329 C 366.134 314.983, 580.863 314.402, 629.250 315.615 L 657 316.310 657 344.655 L 657 373 679.625 373 L 702.250 373 701.625 369.875 C 701.281 368.156, 701 346.556, 701 321.875 L 701 277 667.963 277 L 634.925 277 638.911 271.132 C 644.556 262.819, 656.565 242.806, 660.047 235.907 C 662.699 230.654, 669 215.596, 669 214.513 C 669 214.273, 667.087 213.583, 664.750 212.979 C 656.912 210.954, 641.948 205.952, 636.435 203.514 L 630.973 201.098 626.875 209.249 C 621.630 219.680, 602.780 250.734, 588.947 271.732 L 585.500 276.964 547.583 276.982 C 526.729 276.992, 509.854 276.824, 510.083 276.608 C 510.313 276.393, 516.913 273.003, 524.750 269.075 C 532.587 265.147, 539 261.687, 539 261.386 C 539 259.771, 526.899 237.542, 521.753 229.705 C 516.817 222.188, 502.898 203.928, 498.596 199.328 C 497.767 198.440, 495.277 199.111, 488.362 202.085 M 596.951 347.247 C 593.584 349.131, 591.045 349.163, 492.750 348.574 L 392 347.970 391.989 363.735 C 391.983 372.406, 391.717 381.075, 391.398 383 L 390.819 386.500 472.159 386.272 L 553.500 386.043 550.500 388.575 C 539.176 398.132, 515.986 411.403, 501.697 416.503 L 492.500 419.785 492.223 434.393 C 492.071 442.427, 491.846 449.101, 491.723 449.225 C 491.600 449.349, 452.575 449.686, 405 449.975 L 318.500 450.500 318.229 469.500 L 317.958 488.500 404.979 488.213 L 492 487.927 492.127 506.213 C 492.303 531.707, 491.914 548.672, 491.079 551.823 C 489.658 557.194, 487.668 557.480, 450.046 557.721 C 431.096 557.843, 414.993 558.172, 414.261 558.453 C 413.176 558.870, 413.212 559.510, 414.458 561.918 C 415.298 563.543, 418.263 572.426, 421.048 581.658 C 423.832 590.890, 426.245 598.578, 426.410 598.743 C 426.575 598.908, 441.738 598.562, 460.105 597.974 C 487.188 597.107, 495.012 596.535, 501.500 594.951 C 512.385 592.292, 521.049 587.843, 527.364 581.668 C 535.991 573.234, 536 573.176, 536 527.482 L 536 488.321 619.217 488.110 C 664.986 487.995, 702.533 487.801, 702.654 487.679 C 702.776 487.557, 703.016 479.142, 703.188 468.979 L 703.500 450.500 620.200 450.244 L 536.901 449.988 537.200 444.315 L 537.500 438.641 545.874 433.834 C 565.396 422.627, 579.296 412.098, 615.403 381.174 C 634.388 364.913, 633.624 366.828, 623.500 360.881 C 620.750 359.265, 614.428 355.102, 609.451 351.629 L 600.402 345.315 596.951 347.247 M 495.665 641.927 L 488.831 642.500 488.665 687.782 L 488.500 733.064 498.500 732.782 L 508.500 732.500 509 704.608 L 509.500 676.716 519.380 691.608 C 524.813 699.799, 532.062 710.325, 535.489 715 C 538.915 719.675, 542.949 725.638, 544.454 728.250 L 547.190 733 556.966 733 L 566.742 733 567.465 725.750 C 567.862 721.763, 568.161 701.400, 568.129 680.500 L 568.071 642.500 557.991 642.215 L 547.911 641.929 548.205 669.883 C 548.367 685.257, 548.355 697.691, 548.178 697.513 C 547.473 696.805, 523.410 661.834, 516.689 651.750 C 508.622 639.647, 510.786 640.658, 495.665 641.927 M 295.286 687.501 L 295.072 733 304.882 733 L 314.693 733 315.289 719.062 C 315.938 703.871, 316.618 701.624, 322.180 696.282 L 325.530 693.063 328.427 697.782 C 330.020 700.377, 335.863 709.361, 341.412 717.748 L 351.500 732.995 363.809 732.998 C 373.393 732.999, 375.951 732.723, 375.362 731.750 C 374.947 731.063, 372.168 727.191, 369.187 723.146 C 359.774 710.374, 349.836 695.780, 344.930 687.525 L 340.190 679.550 344.302 674.525 C 346.563 671.761, 354.283 663.425, 361.457 656 L 374.500 642.500 361.846 642.221 L 349.192 641.942 333.379 658.028 C 320.405 671.227, 317.438 673.790, 316.853 672.307 C 316.461 671.313, 316.109 664.087, 316.070 656.250 L 316 642 305.750 642.001 L 295.500 642.002 295.286 687.501 M 417.507 642.988 C 416.789 644.151, 407.101 671.292, 398.051 697.500 C 393.182 711.599, 387.999 725.547, 385.325 731.750 C 384.912 732.707, 387.366 733, 395.790 733 L 406.794 733 409.554 724 L 412.315 715 429.122 715 C 448.393 715, 446.663 714.086, 449.471 725.750 L 451.215 733 462.715 733 C 473.267 733, 474.156 732.856, 473.513 731.250 C 470.966 724.885, 458.353 689.413, 451.023 668 L 442.295 642.500 430.225 642.220 C 422.585 642.043, 417.917 642.325, 417.507 642.988 M 624 676.444 C 624 710.870, 623.999 710.890, 621.717 713.543 C 620.064 715.464, 618.170 716.339, 614.856 716.713 C 608.266 717.456, 605.626 715.391, 602.974 707.421 C 601.799 703.890, 600.536 701.015, 600.168 701.033 C 599.801 701.051, 597.025 701.936, 594 703 C 590.975 704.064, 587.289 704.949, 585.809 704.967 C 584.329 704.985, 582.869 705.403, 582.565 705.895 C 582.260 706.388, 583.812 710.388, 586.013 714.785 C 592.686 728.119, 601.838 734.513, 614.025 734.356 C 623.944 734.229, 630.982 731.794, 635.985 726.758 C 643.813 718.877, 643.772 719.117, 644.270 678.250 L 644.712 642 634.356 642 L 624 642 624 676.444 M 664.213 687.500 L 664.240 733 666.969 733 C 668.470 733, 673.088 732.713, 677.232 732.363 L 684.766 731.726 684.720 686.863 L 684.675 642 674.430 642 L 664.185 642 664.213 687.500 M 424.585 676.916 C 421.882 685.487, 419.058 693.737, 418.309 695.250 L 416.949 698 428.974 698 C 435.588 698, 440.990 697.663, 440.979 697.250 C 440.967 696.837, 438.380 688.587, 435.229 678.916 L 429.500 661.333 424.585 676.916 M 704 691.500 L 704 700 723 700 L 742 700 742 691.500 L 742 683 723 683 L 704 683 704 691.500 M 242.846 757.707 L 240.191 758.114 240.580 803.307 L 240.968 848.500 250.984 848.785 L 261 849.070 261.049 818.785 L 261.097 788.500 264.091 796.500 C 270.029 812.368, 276.354 830.675, 278.948 839.500 L 281.593 848.500 288.644 848.791 L 295.696 849.081 299.957 837.291 C 302.301 830.806, 307.043 817.490, 310.494 807.699 C 313.944 797.909, 317.045 789.622, 317.384 789.283 C 317.723 788.944, 318 802.257, 318 818.868 L 318 849.070 328.174 848.785 L 338.347 848.500 338.549 803.250 L 338.751 758 323.480 758 L 308.208 758 304.104 769.565 C 301.847 775.925, 299.984 781.438, 299.965 781.815 C 299.946 782.192, 297.535 789.185, 294.607 797.355 L 289.283 812.211 285.065 800.355 C 282.745 793.835, 279.031 782.875, 276.811 776 C 274.591 769.125, 272.348 762.327, 271.826 760.893 C 270.938 758.456, 270.346 758.246, 262.688 757.649 C 254.188 756.988, 247.404 757.007, 242.846 757.707 M 479.500 757.923 C 473.574 759.551, 470.944 761.010, 466.423 765.177 C 459.774 771.307, 457.628 776.007, 457.588 784.533 C 457.519 799.281, 465.669 806.275, 489 811.492 C 502.928 814.607, 504.388 815.251, 506.260 819.117 C 507.682 822.053, 507.695 822.796, 506.384 825.955 C 504.173 831.281, 501.945 832.982, 496.309 833.650 C 485.673 834.910, 476.750 830.315, 472.519 821.400 C 470.634 817.426, 470.584 817.416, 464.877 819.921 C 462.470 820.978, 458.813 822.153, 456.750 822.532 C 454.688 822.912, 453 823.409, 453 823.636 C 453 823.864, 454.537 827.102, 456.416 830.832 C 460.572 839.087, 465.853 844.053, 473.525 846.924 C 490.282 853.193, 509.314 850.817, 519.370 841.201 C 530.096 830.942, 530.736 815.798, 520.914 804.639 C 515.811 798.842, 510.836 796.524, 497.988 793.956 C 492.220 792.802, 485.700 790.872, 483.500 789.666 C 479.897 787.692, 479.469 787.041, 479.187 783.119 C 478.941 779.709, 479.359 778.247, 481.111 776.382 C 483.062 774.305, 484.254 774.002, 490.424 774.014 C 500.549 774.033, 501.737 774.547, 504.566 780.129 C 505.923 782.808, 507.571 785, 508.227 785 C 509.157 785, 524.288 780.124, 525.844 779.323 C 526.033 779.226, 524.683 776.330, 522.844 772.888 C 519.259 766.179, 513.192 761.090, 506.182 758.912 C 501.587 757.485, 483.530 756.816, 479.500 757.923 M 660.137 757.764 L 628.774 758.029 629.373 760.264 C 629.703 761.494, 629.979 781.962, 629.986 805.750 L 630 849 662.943 849 L 695.886 849 695.473 840.807 C 695.166 834.707, 694.658 832.388, 693.488 831.733 C 692.623 831.249, 682.728 830.999, 671.498 831.177 L 651.079 831.500 650.463 826.500 C 650.124 823.750, 649.993 819.475, 650.173 817 L 650.500 812.500 655.500 811.816 C 658.250 811.439, 666.800 811.146, 674.500 811.163 C 682.200 811.180, 688.612 810.926, 688.750 810.597 C 688.888 810.269, 689 806.625, 689 802.500 L 689 795 669.500 795 L 650 795 650.015 786.750 C 650.024 782.212, 650.419 777.887, 650.894 777.138 C 651.564 776.080, 656.526 775.682, 673.098 775.359 L 694.439 774.943 694.284 766.797 C 694.176 761.150, 693.725 758.475, 692.814 758.076 C 692.091 757.759, 677.387 757.619, 660.137 757.764 M 386 758.306 C 386 758.507, 382.830 767.633, 378.956 778.586 C 375.082 789.539, 368.836 807.275, 365.077 818 C 361.317 828.725, 357.287 839.879, 356.121 842.787 C 354.954 845.695, 354 848.282, 354 848.537 C 354 848.792, 358.906 849, 364.903 849 L 375.805 849 377.838 842.250 C 378.956 838.538, 380.174 834.260, 380.545 832.745 L 381.219 829.990 398.102 830.245 L 414.985 830.500 416.390 835 C 417.162 837.475, 418.349 841.638, 419.027 844.250 L 420.260 849 431.576 849 L 442.892 849 441.060 843.750 C 440.052 840.862, 435.740 828.825, 431.478 817 C 427.216 805.175, 420.939 787.175, 417.529 777 L 411.330 758.500 398.665 758.220 C 391.699 758.066, 386 758.105, 386 758.306 M 539.015 765.250 C 539.024 769.237, 539.447 773.159, 539.957 773.965 C 540.708 775.151, 543.263 775.371, 553.442 775.125 L 566 774.822 566.136 783.661 C 566.210 788.522, 566.548 805.100, 566.886 820.500 L 567.500 848.500 576.910 848.790 C 582.086 848.949, 586.718 848.682, 587.203 848.197 C 587.712 847.688, 587.613 833.428, 586.968 814.459 C 586.354 796.388, 586.138 780.078, 586.488 778.215 L 587.123 774.828 600.105 775.122 L 613.087 775.417 613.293 766.709 L 613.500 758 576.250 758 L 539 758 539.015 765.250 M 712 803.440 L 712 849 721.970 849 L 731.940 849 731.753 834.250 C 731.650 826.138, 731.916 818.938, 732.342 818.250 C 732.841 817.447, 735.570 817, 739.975 817 L 746.833 817 755.338 833.250 L 763.844 849.500 774.516 849.323 C 780.386 849.225, 785.407 848.926, 785.676 848.658 C 785.944 848.389, 782.831 842.169, 778.759 834.835 C 767.569 814.682, 767.862 816.583, 774.831 809.417 C 781.723 802.330, 783.461 797.316, 783.468 784.500 C 783.473 775.246, 782.210 772.216, 775.737 765.944 C 767.957 758.405, 768.582 758.536, 738.750 758.190 L 712 757.881 712 803.440 M 732.875 775.147 C 732.806 775.341, 732.469 781.013, 732.125 787.752 L 731.500 800.004 740.500 799.978 C 750.903 799.948, 756.310 798.906, 759.878 796.241 C 764.740 792.611, 765.076 783.525, 760.542 778.254 C 758.227 775.562, 757.889 775.492, 745.587 775.147 C 738.664 774.953, 732.944 774.953, 732.875 775.147 M 393.524 793.219 C 390.844 801.624, 388.043 809.737, 387.300 811.250 L 385.949 814 397.974 814 C 404.588 814, 409.990 813.888, 409.979 813.750 C 409.967 813.612, 407.356 805.499, 404.177 795.719 L 398.396 777.938 393.524 793.219" stroke="none" fill="#e84b36" fill-rule="evenodd"/></svg>